<?xml version="1.0" encoding="utf-8"?>
<svg version="1.1" xmlns:xlink="http://www.w3.org/1999/xlink" width="40px" height="40px" xmlns="http://www.w3.org/2000/svg">
  <g transform="matrix(1 0 0 1 -1480 -543 )">
    <path d="M 1500 543  C 1511.2 543  1520 551.8  1520 563  C 1520 574.2  1511.2 583  1500 583  C 1488.8 583  1480 574.2  1480 563  C 1480 551.8  1488.8 543  1500 543  Z " fill-rule="nonzero" fill="#d9001b" stroke="none" />
    <path d="M 1500 543.5  C 1510.92 543.5  1519.5 552.08  1519.5 563  C 1519.5 573.92  1510.92 582.5  1500 582.5  C 1489.08 582.5  1480.5 573.92  1480.5 563  C 1480.5 552.08  1489.08 543.5  1500 543.5  Z " stroke-width="1" stroke="#ffffff" fill="none" />
  </g>
</svg>