<?xml version="1.0" encoding="utf-8"?>
<svg version="1.1" xmlns:xlink="http://www.w3.org/1999/xlink" width="240px" height="150px" xmlns="http://www.w3.org/2000/svg">
  <g transform="matrix(1 0 0 1 -668 -568 )">
    <path d="M 668 568  L 908 568  L 908 718  L 668 718  L 668 568  " fill-rule="nonzero" fill="#cccccc" stroke="none" />
    <path d="M 679 579  L 897 579  L 897 707  L 679 707  L 679 579  " fill-rule="nonzero" fill="#ffffff" stroke="none" />
    <path d="M 804.05 613  C 797.75 613  792.8 608.05  792.8 601.75  C 792.8 595.45  797.75 590.5  804.05 590.5  C 810.35 590.5  815.3 595.45  815.3 601.75  C 815.3 608.05  810.35 613  804.05 613  " fill-rule="nonzero" fill="#cccccc" stroke="none" />
    <path d="M 683 703  L 683 637  L 735.5 607  L 809 658  L 851 625  L 893 658  L 893 703  L 683 703  " fill-rule="nonzero" fill="#169bd5" stroke="none" />
  </g>
</svg>