<?xml version="1.0" encoding="utf-8"?>
<svg version="1.1" xmlns:xlink="http://www.w3.org/1999/xlink" width="14px" height="20px" xmlns="http://www.w3.org/2000/svg">
  <defs>
    <mask fill="white" id="clip17">
      <path d="M 14 10.9210526315789  L 0 0.131578947368421  L 0 16.4473684210526  L 4.40740740740741 13.0263157894737  L 7.38888888888889 19.6052631578947  L 10.7592592592593 17.5  L 7.38888888888889 11.4473684210526  L 14 10.9210526315789  Z " fill-rule="evenodd" />
    </mask>
  </defs>
  <g transform="matrix(1 0 0 1 -1059 -439 )">
    <path d="M 14 10.9210526315789  L 0 0.131578947368421  L 0 16.4473684210526  L 4.40740740740741 13.0263157894737  L 7.38888888888889 19.6052631578947  L 10.7592592592593 17.5  L 7.38888888888889 11.4473684210526  L 14 10.9210526315789  Z " fill-rule="nonzero" fill="#000000" stroke="none" transform="matrix(1 0 0 1 1059 439 )" />
    <path d="M 14 10.9210526315789  L 0 0.131578947368421  L 0 16.4473684210526  L 4.40740740740741 13.0263157894737  L 7.38888888888889 19.6052631578947  L 10.7592592592593 17.5  L 7.38888888888889 11.4473684210526  L 14 10.9210526315789  Z " stroke-width="2" stroke="#cccccc" fill="none" transform="matrix(1 0 0 1 1059 439 )" mask="url(#clip17)" />
  </g>
</svg>