<?xml version="1.0" encoding="utf-8"?>
<svg version="1.1" xmlns:xlink="http://www.w3.org/1999/xlink" width="50px" height="42px" xmlns="http://www.w3.org/2000/svg">
  <g transform="matrix(1 0 0 1 -699 -858 )">
    <path d="M 45.3125 37.3465909090909  C 45.8733974358974 36.7897727272727  46.1538461538462 36.1136363636364  46 35.3181818181818  L 46 14.3181818181818  C 46.1538461538462 13.5227272727273  45.8733974358974 12.8465909090909  45.3125 12.2897727272727  C 44.7516025641026 11.7329545454545  44.0705128205128 11.4545454545455  43.2692307692308 12  L 22.1153846153846 12  C 21.3141025641026 11.4545454545455  20.6330128205128 11.1761363636364  20.0721153846154 10.6193181818182  C 19.5112179487179 10.0625  19.2307692307692 9.38636363636363  19.2307692307692 8.59090909090909  L 19.2307692307692 6.68181818181818  C 19.2307692307692 5.88636363636364  18.9503205128205 5.21022727272727  18.3894230769231 4.65340909090909  C 17.8285256410256 4.09659090909091  17.1474358974359 3.81818181818182  16.3461538461538 3.81818181818182  L 6.73076923076923 3.81818181818182  C 5.92948717948718 3.81818181818182  5.24839743589744 4.09659090909091  4.6875 4.65340909090909  C 4.12660256410256 5.21022727272727  3.84615384615385 5.88636363636364  4 6.68181818181818  L 4 35.3181818181818  C 3.84615384615385 36.1136363636364  4.12660256410256 36.7897727272727  4.6875 37.3465909090909  C 5.24839743589744 37.9034090909091  5.92948717948718 38.1818181818182  6.73076923076923 38  L 43.2692307692308 38  C 44.0705128205128 38.1818181818182  44.7516025641026 37.9034090909091  45.3125 37.3465909090909  Z M 48.0168269230769 9.60511363636363  C 49.3389423076923 10.9176136363636  50 12.4886363636364  50 14.3181818181818  L 50 35.3181818181818  C 50 37.1477272727273  49.3389423076923 38.71875  48.0168269230769 40.03125  C 46.6947115384615 41.34375  45.1121794871795 42  43.2692307692308 42  L 6.73076923076923 42  C 4.88782051282051 42  3.30528846153846 41.34375  1.98317307692308 40.03125  C 0.661057692307692 38.71875  0 37.1477272727273  0 35.3181818181818  L 0 6.68181818181818  C 0 4.85227272727272  0.661057692307692 3.28125  1.98317307692308 1.96875  C 3.30528846153846 0.65625  4.88782051282051 0  6.73076923076923 0  L 16.3461538461538 0  C 18.1891025641026 0  19.7716346153846 0.65625  21.09375 1.96875  C 22.4158653846154 3.28125  23.0769230769231 4.85227272727272  23.0769230769231 6.68181818181818  L 23.0769230769231 8  L 43.2692307692308 8  C 45.1121794871795 7.63636363636363  46.6947115384615 8.29261363636363  48.0168269230769 9.60511363636363  Z " fill-rule="nonzero" fill="#000000" stroke="none" transform="matrix(1 0 0 1 699 858 )" />
  </g>
</svg>