<?xml version="1.0" encoding="utf-8"?>
<svg version="1.1" xmlns:xlink="http://www.w3.org/1999/xlink" width="170px" height="170px" xmlns="http://www.w3.org/2000/svg">
  <g transform="matrix(1 0 0 1 -1000 -687 )">
    <path d="M 1000 687  L 1170 687  L 1170 857  L 1000 857  L 1000 687  " fill-rule="nonzero" fill="#cccccc" stroke="none" />
    <path d="M 1012 699  L 1158 699  L 1158 845  L 1012 845  L 1012 699  " fill-rule="nonzero" fill="#ffffff" stroke="none" />
    <path d="M 1101.15 738  C 1094.01 738  1088.4 732.39  1088.4 725.25  C 1088.4 718.11  1094.01 712.5  1101.15 712.5  C 1108.29 712.5  1113.9 718.11  1113.9 725.25  C 1113.9 732.39  1108.29 738  1101.15 738  " fill-rule="nonzero" fill="#cccccc" stroke="none" />
    <path d="M 1017 841  L 1017 765.65  L 1051.25 731.4  L 1099.2 758.8  L 1126.6 751.95  L 1154 758.8  L 1154 841  L 1017 841  " fill-rule="nonzero" fill="#169bd5" stroke="none" />
  </g>
</svg>