<?xml version="1.0" encoding="utf-8"?>
<svg version="1.1" xmlns:xlink="http://www.w3.org/1999/xlink" width="135px" height="127px" xmlns="http://www.w3.org/2000/svg">
  <g transform="matrix(1 0 0 1 -853 -471 )">
    <path d="M 853 471  L 988 471  L 988 598  L 853 598  L 853 471  " fill-rule="nonzero" fill="#cccccc" stroke="none" />
    <path d="M 862 480  L 979 480  L 979 589  L 862 589  L 862 480  " fill-rule="nonzero" fill="#ffffff" stroke="none" />
    <path d="M 932.725 509.1  C 927.391 509.1  923.2 504.909  923.2 499.575  C 923.2 494.241  927.391 490.05  932.725 490.05  C 938.059 490.05  942.25 494.241  942.25 499.575  C 942.25 504.909  938.059 509.1  932.725 509.1  " fill-rule="nonzero" fill="#cccccc" stroke="none" />
    <path d="M 865 586  L 865 529.35  L 892.75 503.6  L 931.6 527.862222222222  L 953.8 519.05  L 976 527.862222222222  L 976 586  L 865 586  " fill-rule="nonzero" fill="#169bd5" stroke="none" />
  </g>
</svg>