<?xml version="1.0" encoding="utf-8"?>
<svg version="1.1" xmlns:xlink="http://www.w3.org/1999/xlink" width="31px" height="30px" xmlns="http://www.w3.org/2000/svg">
  <g transform="matrix(1 0 0 1 -294 -201 )">
    <path d="M 17.7262620192308 7.70089285714286  C 18.6763822115385 8.54910714285714  19.1514423076923 9.57589285714286  19.1514423076923 10.78125  C 19.1514423076923 11.9754464285714  18.6763822115385 12.9966517857143  17.7262620192308 13.8448660714286  C 16.7761418269231 14.6930803571429  15.6366185897436 15.1171875  14.3076923076923 15.1171875  C 12.978766025641 15.1171875  11.8392427884615 14.6930803571429  10.8891225961538 13.8448660714286  C 9.93900240384616 12.9966517857143  9.46394230769231 11.9754464285714  9.46394230769231 10.78125  C 9.46394230769231 9.57589285714286  9.93900240384616 8.54910714285714  10.8891225961538 7.70089285714286  C 11.8392427884615 6.85267857142857  12.978766025641 6.42857142857143  14.3076923076923 6.42857142857143  C 15.6366185897436 6.42857142857143  16.7761418269231 6.85267857142857  17.7262620192308 7.70089285714286  Z M 17.6610576923077 14.7907366071429  C 17.9715544871795 14.6177455357143  18.1702724358974 14.5089285714286  18.2572115384615 14.4642857142857  C 18.8285256410256 14.4642857142857  19.3408453525641 14.5591517857143  19.7941706730769 14.7488839285714  C 20.2474959935897 14.9386160714286  20.6200921474359 15.2036830357143  20.9119591346154 15.5440848214286  C 21.2038261217949 15.8844866071429  21.4491185897436 16.2583705357143  21.6478365384615 16.6657366071429  C 21.8465544871795 17.0731026785714  21.995592948718 17.5251116071429  22.0949519230769 18.0217633928571  C 22.1943108974359 18.5184151785714  22.2657251602564 18.9787946428571  22.3091947115385 19.4029017857143  C 22.3526642628205 19.8270089285714  22.3743990384615 20.2678571428571  22.3743990384615 20.7254464285714  C 22.3743990384615 21.4732142857143  22.1291065705128 22.1344866071429  21.6385216346154 22.7092633928571  C 21.147936698718 23.2840401785714  20.4927884615385 23.5714285714286  19.6730769230769 23  L 8.94230769230769 23  C 8.12259615384616 23.5714285714286  7.46744791666667 23.2840401785714  6.97686298076923 22.7092633928571  C 6.4862780448718 22.1344866071429  6.24098557692308 21.4732142857143  6.24098557692308 20.7254464285714  C 6.24098557692308 20.1897321428571  6.26893028846154 19.66796875  6.32481971153846 19.16015625  C 6.38070913461539 18.65234375  6.49559294871795 18.1026785714286  6.66947115384615 17.5111607142857  C 6.84334935897436 16.9196428571429  7.07001201923077 16.4090401785714  7.34945913461539 15.9793526785714  C 7.62890625 15.5496651785714  8.02013221153846 15.1897321428571  8.52313701923077 14.8995535714286  C 9.02614182692308 14.609375  9.60677083333333 14.4642857142857  10.2650240384615 14.4642857142857  L 10.3581730769231 14.4642857142857  C 10.4451121794872 14.5089285714286  10.6438301282051 14.6177455357143  10.9543269230769 14.7907366071429  C 11.2648237179487 14.9637276785714  11.4852764423077 15.0809151785714  11.6156850961538 15.1422991071429  C 11.74609375 15.2036830357143  11.9510216346154 15.2985491071429  12.23046875 15.4268973214286  C 12.5099158653846 15.5552455357143  12.7396834935897 15.64453125  12.9197716346154 15.6947544642857  C 13.099859775641 15.7449776785714  13.3172075320513 15.7952008928571  13.5718149038462 15.8454241071429  C 13.826422275641 15.8956473214286  14.0717147435897 15.9207589285714  14.3076923076923 15.9207589285714  C 14.5436698717949 15.9207589285714  14.7889623397436 15.8956473214286  15.0435697115385 15.8454241071429  C 15.2981770833333 15.7952008928571  15.5155248397436 15.7449776785714  15.6956129807692 15.6947544642857  C 15.8757011217949 15.64453125  16.10546875 15.5552455357143  16.3849158653846 15.4268973214286  C 16.6643629807692 15.2985491071429  16.8692908653846 15.2036830357143  16.9996995192308 15.1422991071429  C 17.1301081730769 15.0809151785714  17.3505608974359 14.9637276785714  17.6610576923077 14.7907366071429  Z M 31 6.96428571428571  L 31 10.1785714285714  C 31 10.3236607142857  30.9410056089744 10.44921875  30.8230168269231 10.5552455357143  C 30.7050280448718 10.6612723214286  30.5653044871795 10.7142857142857  30.4038461538462 10.7142857142857  L 28.6153846153846 10.7142857142857  L 28.6153846153846 12.8571428571429  L 30.4038461538462 12.8571428571429  C 30.5653044871795 12.8571428571429  30.7050280448718 12.91015625  30.8230168269231 13.0161830357143  C 30.9410056089744 13.1222098214286  31 13.2477678571429  31 13.3928571428571  L 31 16.6071428571429  C 31 16.7522321428571  30.9410056089744 16.8777901785714  30.8230168269231 16.9838169642857  C 30.7050280448718 17.08984375  30.5653044871795 17.1428571428571  30.4038461538462 17.1428571428571  L 28.6153846153846 17.1428571428571  L 28.6153846153846 19.2857142857143  L 30.4038461538462 19.2857142857143  C 30.5653044871795 19.2857142857143  30.7050280448718 19.3387276785714  30.8230168269231 19.4447544642857  C 30.9410056089744 19.55078125  31 19.6763392857143  31 19.8214285714286  L 31 23.0357142857143  C 31 23.1808035714286  30.9410056089744 23.3063616071429  30.8230168269231 23.4123883928571  C 30.7050280448718 23.5184151785714  30.5653044871795 23.5714285714286  30.4038461538462 23.5714285714286  L 28.6153846153846 23.5714285714286  L 28.6153846153846 27.3214285714286  C 28.6153846153846 28.0580357142857  28.3235176282051 28.6886160714286  27.7397836538462 29.2131696428571  C 27.1560496794872 29.7377232142857  26.4543269230769 30  25.6346153846154 30  L 2.98076923076923 30  C 2.16105769230769 30  1.45933493589744 29.7377232142857  0.875600961538462 29.2131696428571  C 0.291866987179487 28.6886160714286  0 28.0580357142857  0 27.3214285714286  L 0 2.67857142857143  C 0 1.94196428571429  0.291866987179487 1.31138392857143  0.875600961538462 0.786830357142858  C 1.45933493589744 0.262276785714286  2.16105769230769 0  2.98076923076923 0  L 25.6346153846154 0  C 26.4543269230769 0  27.1560496794872 0.262276785714286  27.7397836538462 0.786830357142858  C 28.3235176282051 1.31138392857143  28.6153846153846 1.94196428571429  28.6153846153846 2.67857142857143  L 28.6153846153846 6.42857142857143  L 30.4038461538462 6.42857142857143  C 30.5653044871795 6.42857142857143  30.7050280448718 6.48158482142857  30.8230168269231 6.58761160714286  C 30.9410056089744 6.69363839285714  31 6.81919642857143  31 6.96428571428571  Z M 26.0537860576923 27.6981026785714  C 26.1717748397436 27.5920758928571  26.2307692307692 27.4665178571429  26 27.3214285714286  L 26 2.67857142857143  C 26.2307692307692 2.53348214285714  26.1717748397436 2.40792410714286  26.0537860576923 2.30189732142857  C 25.935797275641 2.19587053571428  25.7960737179487 2.14285714285714  25.6346153846154 2.14285714285714  L 2.98076923076923 2.14285714285714  C 2.8193108974359 2.14285714285714  2.67958733974359 2.19587053571428  2.56159855769231 2.30189732142857  C 2.44360977564103 2.40792410714286  2.38461538461538 2.53348214285714  3 2.67857142857143  L 3 27.3214285714286  C 2.38461538461538 27.4665178571429  2.44360977564103 27.5920758928571  2.56159855769231 27.6981026785714  C 2.67958733974359 27.8041294642857  2.8193108974359 27.8571428571429  2.98076923076923 27.8571428571429  L 25.6346153846154 27.8571428571429  C 25.7960737179487 27.8571428571429  25.935797275641 27.8041294642857  26.0537860576923 27.6981026785714  Z " fill-rule="nonzero" fill="#000000" stroke="none" transform="matrix(1 0 0 1 294 201 )" />
  </g>
</svg>