<svg t="1576564777870" class="icon" viewBox="0 0 1024 1024" version="1.1" xmlns="http://www.w3.org/2000/svg" p-id="1690" width="60" height="60"><path d="M139.636364 69.818182v884.363636h744.727272V69.818182H139.636364z m791.272727 930.909091H93.090909V23.272727h837.818182v977.454546zM605.602909 622.08V721.454545H418.909091v-99.141818c-43.636364-29.672727-69.818182-78.615273-69.818182-133.585454a162.909091 162.909091 0 1 1 256.512 133.352727z m-46.545454 52.829091v-78.894546l11.52-6.725818A116.363636 116.363636 0 1 0 395.636364 488.727273c0 42.914909 21.876364 80.081455 57.949091 100.375272l11.86909 6.679273V674.909091h93.60291zM535.272727 302.545455h-46.545454v-69.818182h46.545454v69.818182z m139.473455 79.616l-32.907637-32.907637 54.853819-54.853818 32.907636 32.907636-54.853818 54.853819z m-325.492364 0l-54.853818-54.853819 32.907636-32.907636 54.853819 54.853818-32.907637 32.907637zM442.181818 791.272727v-46.545454h139.636364v46.545454h-139.636364z" fill="#6D7793" p-id="1691"></path></svg>