<svg t="1576569819958" class="icon" viewBox="0 0 1024 1024" version="1.1" xmlns="http://www.w3.org/2000/svg" p-id="2554" width="20" height="20"><path d="M804.76 565.31C779.884 551.723 751.344 544 721 544c-8.672 0-17.196 0.63-25.53 1.849 4.904-17.104 7.53-35.17 7.53-53.849 0-107.696-87.304-195-195-195s-195 87.304-195 195 87.304 195 195 195c14.352 0 28.341-1.55 41.81-4.493A175.713 175.713 0 0 0 546 719c0 27.083 6.152 52.73 17.135 75.617V838c0 8.837-7.163 16-16 16h-95.27v-60.67c-43.32-7.956-83.446-25.032-118.315-49.165l-31.62 31.613c-6.249 6.247-16.378 6.247-22.626 0l-67.368-67.352 43.091-43.083c-23.769-34.627-40.596-74.39-48.477-117.283H161c-8.837 0-16-7.163-16-16v-95.25h61.55c7.938-43.208 24.955-83.24 49.001-118.045l-32.097-32.09c-6.25-6.248-6.25-16.378-0.002-22.627 0 0 0-0.002 0.002-0.002l0.002 0.002 67.365-67.354 43.491 43.483c34.692-23.854 74.55-40.74 117.553-48.638V146c0-8.837 7.163-16 16-16h95.27v61.54c42.853 7.87 82.583 24.665 117.19 48.388l32.54-32.534c6.25-6.247 16.378-6.247 22.626 0l0.002-0.002 67.366 67.354-43.662 43.654c24.017 34.657 41.058 74.514 49.092 117.54H854c8.837 0 16 7.163 16 16v95.25h-61.392a304.13 304.13 0 0 1-3.847 18.12zM723 877c-86.709 0-157-70.067-157-156.5S636.291 564 723 564s157 70.067 157 156.5S809.709 877 723 877z m0.905-68.53c13.807 0 25-11.192 25-25 0-13.806-11.193-25-25-25s-25 11.194-25 25c0 13.808 11.193 25 25 25z m-80.87-70.302A8 8 0 0 0 645.382 750l15.095 8.66c15.46-23.064 35.83-34.595 61.108-34.595 23.128 0 42.059 9.564 56.793 28.694a8 8 0 0 0 10.24 2.102l16.612-9.283c-21.291-31.703-49.173-47.554-83.645-47.554-31.671 0-57.855 13.38-78.55 40.143z m-38.272-43.633a8 8 0 0 0 2.67 11.552l15.712 8.77c27.221-37.528 59.99-55.959 98.307-55.292 36.396 0.634 67.692 17.295 93.888 49.984a8 8 0 0 0 10.102 2.005l17.558-9.67C814.105 655.96 773.589 633 721.452 633c-49.278 0-88.174 20.512-116.69 61.535z" p-id="2555"></path></svg>