<?xml version="1.0" encoding="utf-8"?>
<svg version="1.1" xmlns:xlink="http://www.w3.org/1999/xlink" width="25px" height="25px" xmlns="http://www.w3.org/2000/svg">
  <g transform="matrix(1 0 0 1 -1836 -1044 )">
    <path d="M 1848.5 1044  C 1855.5 1044  1861 1049.5  1861 1056.5  C 1861 1063.5  1855.5 1069  1848.5 1069  C 1841.5 1069  1836 1063.5  1836 1056.5  C 1836 1049.5  1841.5 1044  1848.5 1044  Z " fill-rule="nonzero" fill="#ffffff" stroke="none" />
    <path d="M 1848.5 1044.5  C 1855.22 1044.5  1860.5 1049.78  1860.5 1056.5  C 1860.5 1063.22  1855.22 1068.5  1848.5 1068.5  C 1841.78 1068.5  1836.5 1063.22  1836.5 1056.5  C 1836.5 1049.78  1841.78 1044.5  1848.5 1044.5  Z " stroke-width="1" stroke="#797979" fill="none" />
  </g>
</svg>