<?xml version="1.0" encoding="utf-8"?>
<svg version="1.1" xmlns:xlink="http://www.w3.org/1999/xlink" width="270px" height="213px" xmlns="http://www.w3.org/2000/svg">
  <g transform="matrix(1 0 0 1 -1187 -409 )">
    <path d="M 1187 409  L 1457 409  L 1457 622  L 1187 622  L 1187 409  " fill-rule="nonzero" fill="#cccccc" stroke="none" />
    <path d="M 1202 424  L 1442 424  L 1442 607  L 1202 607  L 1202 424  " fill-rule="nonzero" fill="#ffffff" stroke="none" />
    <path d="M 1343.375 472.9  C 1334.429 472.9  1327.4 465.871  1327.4 456.925  C 1327.4 447.979  1334.429 440.95  1343.375 440.95  C 1352.321 440.95  1359.35 447.979  1359.35 456.925  C 1359.35 465.871  1352.321 472.9  1343.375 472.9  " fill-rule="nonzero" fill="#cccccc" stroke="none" />
    <path d="M 1208 602  L 1208 507.4  L 1265.25 464.4  L 1345.4 520.586666666667  L 1391.2 490.2  L 1437 520.586666666667  L 1437 602  L 1208 602  " fill-rule="nonzero" fill="#169bd5" stroke="none" />
  </g>
</svg>