<?xml version="1.0" encoding="utf-8"?>
<svg version="1.1" xmlns:xlink="http://www.w3.org/1999/xlink" width="22px" height="23px" xmlns="http://www.w3.org/2000/svg">
  <g transform="matrix(1 0 0 1 -1426 -737 )">
    <path d="M 1.69230769230769 17.6607142857143  L 1.69230769230769 21.3571428571429  L 5.5 21.3571428571429  L 5.5 17.6607142857143  L 1.69230769230769 17.6607142857143  Z M 6.34615384615385 17.6607142857143  L 6.34615384615385 21.3571428571429  L 10.5769230769231 21.3571428571429  L 10.5769230769231 17.6607142857143  L 6.34615384615385 17.6607142857143  Z M 1.69230769230769 12.7321428571429  L 1.69230769230769 16.8392857142857  L 5.5 16.8392857142857  L 5.5 12.7321428571429  L 1.69230769230769 12.7321428571429  Z M 6.34615384615385 12.7321428571429  L 6.34615384615385 16.8392857142857  L 10.5769230769231 16.8392857142857  L 10.5769230769231 12.7321428571429  L 6.34615384615385 12.7321428571429  Z M 1.69230769230769 8.21428571428571  L 1.69230769230769 11.9107142857143  L 5.5 11.9107142857143  L 5.5 8.21428571428571  L 1.69230769230769 8.21428571428571  Z M 11.4230769230769 17.6607142857143  L 11.4230769230769 21.3571428571429  L 15.6538461538462 21.3571428571429  L 15.6538461538462 17.6607142857143  L 11.4230769230769 17.6607142857143  Z M 6.34615384615385 8.21428571428571  L 6.34615384615385 11.9107142857143  L 10.5769230769231 11.9107142857143  L 10.5769230769231 8.21428571428571  L 6.34615384615385 8.21428571428571  Z M 16.5 17.6607142857143  L 16.5 21.3571428571429  L 20.3076923076923 21.3571428571429  L 20.3076923076923 17.6607142857143  L 16.5 17.6607142857143  Z M 11.4230769230769 12.7321428571429  L 11.4230769230769 16.8392857142857  L 15.6538461538462 16.8392857142857  L 15.6538461538462 12.7321428571429  L 11.4230769230769 12.7321428571429  Z M 6.64362980769231 6.03878348214286  C 6.72736378205128 5.9574962797619  6.76923076923077 5.86123511904762  6.76923076923077 5.75  L 6.76923076923077 2.05357142857143  C 6.76923076923077 1.94233630952381  6.72736378205128 1.84607514880952  6.64362980769231 1.76478794642857  C 6.55989583333333 1.68350074404762  6.46073717948718 1.64285714285714  6.34615384615385 1.64285714285714  L 5.5 1.64285714285714  C 5.38541666666667 1.64285714285714  5.28625801282051 1.68350074404762  5.20252403846154 1.76478794642857  C 5.11879006410256 1.84607514880952  5.07692307692308 1.94233630952381  5.07692307692308 2.05357142857143  L 5.07692307692308 5.75  C 5.07692307692308 5.86123511904762  5.11879006410256 5.9574962797619  5.20252403846154 6.03878348214286  C 5.28625801282051 6.12007068452381  5.38541666666667 6.16071428571429  5.5 6.16071428571429  L 6.34615384615385 6.16071428571429  C 6.46073717948718 6.16071428571429  6.55989583333333 6.12007068452381  6.64362980769231 6.03878348214286  Z M 16.5 12.7321428571429  L 16.5 16.8392857142857  L 20.3076923076923 16.8392857142857  L 20.3076923076923 12.7321428571429  L 16.5 12.7321428571429  Z M 11.4230769230769 8.21428571428571  L 11.4230769230769 11.9107142857143  L 15.6538461538462 11.9107142857143  L 15.6538461538462 8.21428571428571  L 11.4230769230769 8.21428571428571  Z M 16.5 8.21428571428571  L 16.5 11.9107142857143  L 20.3076923076923 11.9107142857143  L 20.3076923076923 8.21428571428571  L 16.5 8.21428571428571  Z M 16.7974759615385 6.03878348214286  C 16.8812099358974 5.9574962797619  16.9230769230769 5.86123511904762  16.9230769230769 5.75  L 16.9230769230769 2.05357142857143  C 16.9230769230769 1.94233630952381  16.8812099358974 1.84607514880952  16.7974759615385 1.76478794642857  C 16.7137419871795 1.68350074404762  16.6145833333333 1.64285714285714  16.5 1.64285714285714  L 15.6538461538462 1.64285714285714  C 15.5392628205128 1.64285714285714  15.4401041666667 1.68350074404762  15.3563701923077 1.76478794642857  C 15.2726362179487 1.84607514880952  15.2307692307692 1.94233630952381  15.2307692307692 2.05357142857143  L 15.2307692307692 5.75  C 15.2307692307692 5.86123511904762  15.2726362179487 5.9574962797619  15.3563701923077 6.03878348214286  C 15.4401041666667 6.12007068452381  15.5392628205128 6.16071428571429  15.6538461538462 6.16071428571429  L 16.5 6.16071428571429  C 16.6145833333333 6.16071428571429  16.7137419871795 6.12007068452381  16.7974759615385 6.03878348214286  Z M 21.4975961538462 3.7734375  C 21.8325320512821 4.09858630952381  22 4.48363095238095  22 4.92857142857143  L 22 21.3571428571429  C 22 21.8020833333333  21.8325320512821 22.1871279761905  21.4975961538462 22.5122767857143  C 21.1626602564103 22.8374255952381  20.7660256410256 23  20.3076923076923 23  L 1.69230769230769 23  C 1.23397435897436 23  0.837339743589744 22.8374255952381  0.502403846153846 22.5122767857143  C 0.167467948717949 22.1871279761905  0 21.8020833333333  0 21.3571428571429  L 0 4.92857142857143  C 0 4.48363095238095  0.167467948717949 4.09858630952381  0.502403846153846 3.7734375  C 0.837339743589744 3.44828869047619  1.23397435897436 3.28571428571429  1.69230769230769 3.28571428571429  L 3.38461538461539 3.28571428571429  L 3.38461538461539 2.05357142857143  C 3.38461538461539 1.48883928571429  3.59174679487179 1.00539434523809  4.00600961538461 0.603236607142858  C 4.42027243589744 0.201078869047619  4.91826923076923 0  5.5 0  L 6.34615384615385 0  C 6.92788461538461 0  7.42588141025641 0.201078869047619  7.84014423076923 0.603236607142858  C 8.25440705128205 1.00539434523809  8.46153846153846 1.48883928571429  8.46153846153846 2.05357142857143  L 8.46153846153846 3.28571428571429  L 13.5384615384615 3.28571428571429  L 13.5384615384615 2.05357142857143  C 13.5384615384615 1.48883928571429  13.7455929487179 1.00539434523809  14.1598557692308 0.603236607142858  C 14.5741185897436 0.201078869047619  15.0721153846154 0  15.6538461538462 0  L 16.5 0  C 17.0817307692308 0  17.5797275641026 0.201078869047619  17.9939903846154 0.603236607142858  C 18.4082532051282 1.00539434523809  18.6153846153846 1.48883928571429  18.6153846153846 2.05357142857143  L 18.6153846153846 3.28571428571429  L 20.3076923076923 3.28571428571429  C 20.7660256410256 3.28571428571429  21.1626602564103 3.44828869047619  21.4975961538462 3.7734375  Z " fill-rule="nonzero" fill="#000000" stroke="none" transform="matrix(1 0 0 1 1426 737 )" />
  </g>
</svg>