<?xml version="1.0" encoding="utf-8"?>
<svg version="1.1" xmlns:xlink="http://www.w3.org/1999/xlink" width="35px" height="35px" xmlns="http://www.w3.org/2000/svg">
  <g transform="matrix(1 0 0 1 -1016 -256 )">
    <path d="M 1033.5 256  C 1043.3 256  1051 263.7  1051 273.5  C 1051 283.3  1043.3 291  1033.5 291  C 1023.7 291  1016 283.3  1016 273.5  C 1016 263.7  1023.7 256  1033.5 256  Z " fill-rule="nonzero" fill="#ffffff" stroke="none" />
    <path d="M 1033.5 256.5  C 1043.02 256.5  1050.5 263.98  1050.5 273.5  C 1050.5 283.02  1043.02 290.5  1033.5 290.5  C 1023.98 290.5  1016.5 283.02  1016.5 273.5  C 1016.5 263.98  1023.98 256.5  1033.5 256.5  Z " stroke-width="1" stroke="#555555" fill="none" />
  </g>
</svg>