<?xml version="1.0" encoding="utf-8"?>
<svg version="1.1" xmlns:xlink="http://www.w3.org/1999/xlink" width="28px" height="14px" xmlns="http://www.w3.org/2000/svg">
  <g transform="matrix(1 0 0 1 -1460 -239 )">
    <path d="M 27.48046875 0.461805555555556  C 27.8268229166667 0.769675925925924  28 1.13425925925926  28 1.55555555555556  C 28 1.97685185185185  27.8268229166667 2.34143518518518  27.48046875 2.64930555555556  L 15.23046875 13.5381944444444  C 14.8841145833333 13.8460648148148  14.4739583333333 14  14 14  C 13.5260416666667 14  13.1158854166667 13.8460648148148  12.76953125 13.5381944444444  L 0.51953125 2.64930555555556  C 0.173177083333333 2.34143518518518  0 1.97685185185185  0 1.55555555555556  C 0 1.13425925925926  0.173177083333333 0.769675925925924  0.51953125 0.461805555555556  C 0.865885416666667 0.153935185185183  1.27604166666667 0  1.75 0  L 26.25 0  C 26.7239583333333 0  27.1341145833333 0.153935185185183  27.48046875 0.461805555555556  Z " fill-rule="nonzero" fill="#000000" stroke="none" transform="matrix(1 0 0 1 1460 239 )" />
  </g>
</svg>