<?xml version="1.0" encoding="utf-8"?>
<svg version="1.1" xmlns:xlink="http://www.w3.org/1999/xlink" width="30px" height="16px" xmlns="http://www.w3.org/2000/svg">
  <g transform="matrix(1 0 0 1 -811 -440 )">
    <path d="M 29.6993987975952 1.64948453608247  C 29.8997995991984 1.83276059564719  30 2.04352806414662  30 2.28178694158076  C 30 2.52004581901489  29.8997995991984 2.73081328751432  29.6993987975952 2.91408934707904  L 15.6913827655311 15.7250859106529  C 15.4909819639279 15.9083619702176  15.2605210420842 16  15 16  C 14.7394789579158 16  14.5090180360721 15.9083619702176  14.3086172344689 15.7250859106529  L 0.30060120240481 2.91408934707904  C 0.100200400801604 2.73081328751432  0 2.52004581901489  0 2.28178694158076  C 0 2.04352806414662  0.100200400801604 1.83276059564719  0.30060120240481 1.64948453608247  L 1.80360721442886 0.27491408934708  C 2.00400801603206 0.0916380297823576  2.23446893787575 0  2.49498997995992 0  C 2.75551102204409 0  2.98597194388778 0.0916380297823576  3.18637274549098 0.27491408934708  L 15 11.0790378006873  L 26.813627254509 0.27491408934708  C 27.0140280561122 0.0916380297823576  27.2444889779559 0  27.5050100200401 0  C 27.7655310621243 0  27.9959919839679 0.0916380297823576  28.1963927855711 0.27491408934708  L 29.6993987975952 1.64948453608247  Z " fill-rule="nonzero" fill="#000000" stroke="none" transform="matrix(1 0 0 1 811 440 )" />
  </g>
</svg>