<?xml version="1.0" encoding="utf-8"?>
<svg version="1.1" xmlns:xlink="http://www.w3.org/1999/xlink" width="150px" height="150px" xmlns="http://www.w3.org/2000/svg">
  <g transform="matrix(1 0 0 1 -998 -708 )">
    <path d="M 998 708  L 1148 708  L 1148 858  L 998 858  L 998 708  " fill-rule="nonzero" fill="#cccccc" stroke="none" />
    <path d="M 1009 719  L 1137 719  L 1137 847  L 1009 847  L 1009 719  " fill-rule="nonzero" fill="#ffffff" stroke="none" />
    <path d="M 1087.25 753  C 1080.95 753  1076 748.05  1076 741.75  C 1076 735.45  1080.95 730.5  1087.25 730.5  C 1093.55 730.5  1098.5 735.45  1098.5 741.75  C 1098.5 748.05  1093.55 753  1087.25 753  " fill-rule="nonzero" fill="#cccccc" stroke="none" />
    <path d="M 1013 843  L 1013 777  L 1043 747  L 1085 771  L 1109 765  L 1133 771  L 1133 843  L 1013 843  " fill-rule="nonzero" fill="#169bd5" stroke="none" />
  </g>
</svg>