<?xml version="1.0" encoding="utf-8"?>
<svg version="1.1" xmlns:xlink="http://www.w3.org/1999/xlink" width="150px" height="150px" xmlns="http://www.w3.org/2000/svg">
  <g transform="matrix(1 0 0 1 -1640 -708 )">
    <path d="M 28.515625 136.748798076923  C 29.5052083333333 135.606971153846  30 134.254807692308  30 132.692307692308  L 30 121.153846153846  C 30 119.591346153846  29.5052083333333 118.239182692308  28.515625 117.097355769231  C 27.5260416666667 115.955528846154  26.3541666666667 115.384615384615  25 115  L 15 115  C 13.6458333333333 115.384615384615  12.4739583333333 115.955528846154  11.484375 117.097355769231  C 10.4947916666667 118.239182692308  10 119.591346153846  10 121.153846153846  L 10 132.692307692308  C 10 134.254807692308  10.4947916666667 135.606971153846  11.484375 136.748798076923  C 12.4739583333333 137.890625  13.6458333333333 138.461538461538  15 138  L 25 138  C 26.3541666666667 138.461538461538  27.5260416666667 137.890625  28.515625 136.748798076923  Z M 28.515625 102.133413461538  C 29.5052083333333 100.991586538462  30 99.6394230769231  30 98.0769230769231  L 30 86.5384615384615  C 30 84.9759615384615  29.5052083333333 83.6237980769231  28.515625 82.4819711538462  C 27.5260416666667 81.3401442307692  26.3541666666667 80.7692307692308  25 80  L 15 80  C 13.6458333333333 80.7692307692308  12.4739583333333 81.3401442307692  11.484375 82.4819711538462  C 10.4947916666667 83.6237980769231  10 84.9759615384615  10 86.5384615384615  L 10 98.0769230769231  C 10 99.6394230769231  10.4947916666667 100.991586538462  11.484375 102.133413461538  C 12.4739583333333 103.275240384615  13.6458333333333 103.846153846154  15 103  L 25 103  C 26.3541666666667 103.846153846154  27.5260416666667 103.275240384615  28.515625 102.133413461538  Z M 28.515625 67.5180288461538  C 29.5052083333333 66.3762019230769  30 65.0240384615385  30 63.4615384615385  L 30 51.9230769230769  C 30 50.3605769230769  29.5052083333333 49.0084134615384  28.515625 47.8665865384615  C 27.5260416666667 46.7247596153846  26.3541666666667 46.1538461538462  25 47  L 15 47  C 13.6458333333333 46.1538461538462  12.4739583333333 46.7247596153846  11.484375 47.8665865384615  C 10.4947916666667 49.0084134615384  10 50.3605769230769  10 51.9230769230769  L 10 63.4615384615385  C 10 65.0240384615385  10.4947916666667 66.3762019230769  11.484375 67.5180288461538  C 12.4739583333333 68.6598557692308  13.6458333333333 69.2307692307692  15 70  L 25 70  C 26.3541666666667 69.2307692307692  27.5260416666667 68.6598557692308  28.515625 67.5180288461538  Z M 108.515625 136.748798076923  C 109.505208333333 135.606971153846  110 134.254807692308  110 132.692307692308  L 110 86.5384615384615  C 110 84.9759615384615  109.505208333333 83.6237980769231  108.515625 82.4819711538462  C 107.526041666667 81.3401442307692  106.354166666667 80.7692307692308  105 80  L 45 80  C 43.6458333333333 80.7692307692308  42.4739583333333 81.3401442307692  41.484375 82.4819711538462  C 40.4947916666667 83.6237980769231  40 84.9759615384615  40 86.5384615384615  L 40 132.692307692308  C 40 134.254807692308  40.4947916666667 135.606971153846  41.484375 136.748798076923  C 42.4739583333333 137.890625  43.6458333333333 138.461538461538  45 138  L 105 138  C 106.354166666667 138.461538461538  107.526041666667 137.890625  108.515625 136.748798076923  Z M 28.515625 32.9026442307692  C 29.5052083333333 31.7608173076923  30 30.4086538461538  30 28.8461538461538  L 30 17.3076923076923  C 30 15.7451923076923  29.5052083333333 14.3930288461538  28.515625 13.2512019230769  C 27.5260416666667 12.109375  26.3541666666667 11.5384615384615  25 12  L 15 12  C 13.6458333333333 11.5384615384615  12.4739583333333 12.109375  11.484375 13.2512019230769  C 10.4947916666667 14.3930288461538  10 15.7451923076923  10 17.3076923076923  L 10 28.8461538461538  C 10 30.4086538461538  10.4947916666667 31.7608173076923  11.484375 32.9026442307692  C 12.4739583333333 34.0444711538461  13.6458333333333 34.6153846153846  15 35  L 25 35  C 26.3541666666667 34.6153846153846  27.5260416666667 34.0444711538461  28.515625 32.9026442307692  Z M 138.515625 136.748798076923  C 139.505208333333 135.606971153846  140 134.254807692308  140 132.692307692308  L 140 121.153846153846  C 140 119.591346153846  139.505208333333 118.239182692308  138.515625 117.097355769231  C 137.526041666667 115.955528846154  136.354166666667 115.384615384615  135 115  L 125 115  C 123.645833333333 115.384615384615  122.473958333333 115.955528846154  121.484375 117.097355769231  C 120.494791666667 118.239182692308  120 119.591346153846  120 121.153846153846  L 120 132.692307692308  C 120 134.254807692308  120.494791666667 135.606971153846  121.484375 136.748798076923  C 122.473958333333 137.890625  123.645833333333 138.461538461538  125 138  L 135 138  C 136.354166666667 138.461538461538  137.526041666667 137.890625  138.515625 136.748798076923  Z M 108.515625 67.5180288461538  C 109.505208333333 66.3762019230769  110 65.0240384615385  110 63.4615384615385  L 110 17.3076923076923  C 110 15.7451923076923  109.505208333333 14.3930288461538  108.515625 13.2512019230769  C 107.526041666667 12.109375  106.354166666667 11.5384615384615  105 12  L 45 12  C 43.6458333333333 11.5384615384615  42.4739583333333 12.109375  41.484375 13.2512019230769  C 40.4947916666667 14.3930288461538  40 15.7451923076923  40 17.3076923076923  L 40 63.4615384615385  C 40 65.0240384615385  40.4947916666667 66.3762019230769  41.484375 67.5180288461538  C 42.4739583333333 68.6598557692308  43.6458333333333 69.2307692307692  45 70  L 105 70  C 106.354166666667 69.2307692307692  107.526041666667 68.6598557692308  108.515625 67.5180288461538  Z M 138.515625 102.133413461538  C 139.505208333333 100.991586538462  140 99.6394230769231  140 98.0769230769231  L 140 86.5384615384615  C 140 84.9759615384615  139.505208333333 83.6237980769231  138.515625 82.4819711538462  C 137.526041666667 81.3401442307692  136.354166666667 80.7692307692308  135 80  L 125 80  C 123.645833333333 80.7692307692308  122.473958333333 81.3401442307692  121.484375 82.4819711538462  C 120.494791666667 83.6237980769231  120 84.9759615384615  120 86.5384615384615  L 120 98.0769230769231  C 120 99.6394230769231  120.494791666667 100.991586538462  121.484375 102.133413461538  C 122.473958333333 103.275240384615  123.645833333333 103.846153846154  125 103  L 135 103  C 136.354166666667 103.846153846154  137.526041666667 103.275240384615  138.515625 102.133413461538  Z M 138.515625 67.5180288461538  C 139.505208333333 66.3762019230769  140 65.0240384615385  140 63.4615384615385  L 140 51.9230769230769  C 140 50.3605769230769  139.505208333333 49.0084134615384  138.515625 47.8665865384615  C 137.526041666667 46.7247596153846  136.354166666667 46.1538461538462  135 47  L 125 47  C 123.645833333333 46.1538461538462  122.473958333333 46.7247596153846  121.484375 47.8665865384615  C 120.494791666667 49.0084134615384  120 50.3605769230769  120 51.9230769230769  L 120 63.4615384615385  C 120 65.0240384615385  120.494791666667 66.3762019230769  121.484375 67.5180288461538  C 122.473958333333 68.6598557692308  123.645833333333 69.2307692307692  125 70  L 135 70  C 136.354166666667 69.2307692307692  137.526041666667 68.6598557692308  138.515625 67.5180288461538  Z M 138.515625 32.9026442307692  C 139.505208333333 31.7608173076923  140 30.4086538461538  140 28.8461538461538  L 140 17.3076923076923  C 140 15.7451923076923  139.505208333333 14.3930288461538  138.515625 13.2512019230769  C 137.526041666667 12.109375  136.354166666667 11.5384615384615  135 12  L 125 12  C 123.645833333333 11.5384615384615  122.473958333333 12.109375  121.484375 13.2512019230769  C 120.494791666667 14.3930288461538  120 15.7451923076923  120 17.3076923076923  L 120 28.8461538461538  C 120 30.4086538461538  120.494791666667 31.7608173076923  121.484375 32.9026442307692  C 122.473958333333 34.0444711538461  123.645833333333 34.6153846153846  125 35  L 135 35  C 136.354166666667 34.6153846153846  137.526041666667 34.0444711538461  138.515625 32.9026442307692  Z M 146.328125 4.23677884615384  C 148.776041666667 7.06129807692307  150 10.4567307692308  150 14.4230769230769  L 150 135.576923076923  C 150 139.543269230769  148.776041666667 142.938701923077  146.328125 145.763221153846  C 143.880208333333 148.587740384615  140.9375 150  137.5 150  L 12.5 150  C 9.0625 150  6.11979166666667 148.587740384615  3.671875 145.763221153846  C 1.22395833333333 142.938701923077  0 139.543269230769  0 135.576923076923  L 0 14.4230769230769  C 0 10.4567307692308  1.22395833333333 7.06129807692307  3.671875 4.23677884615384  C 6.11979166666667 1.4122596153846  9.0625 0  12.5 0  L 137.5 0  C 140.9375 0  143.880208333333 1.4122596153846  146.328125 4.23677884615384  Z " fill-rule="nonzero" fill="#000000" stroke="none" transform="matrix(1 0 0 1 1640 708 )" />
  </g>
</svg>